<mxfile host="app.diagrams.net" agent="Mozilla/5.0 (Windows NT 10.0; Win64; x64) AppleWebKit/537.36 (KHTML, like Gecko) Chrome/129.0.0.0 Safari/537.36" version="24.8.0">
  <diagram name="Page-1" id="GNzj96wlSZAgZW0B1Xzi">
    <mxGraphModel dx="1232" dy="1097" grid="1" gridSize="10" guides="1" tooltips="1" connect="1" arrows="1" fold="1" page="1" pageScale="1" pageWidth="850" pageHeight="1100" math="0" shadow="0">
      <root>
        <mxCell id="0" />
        <mxCell id="1" parent="0" />
        <mxCell id="h8tkEOQfb4YPFhZdcTbf-1" value="" style="strokeWidth=1;shadow=0;dashed=0;align=center;html=1;shape=mxgraph.mockup.containers.browserWindow;rSize=0;strokeColor=#666666;strokeColor2=#008cff;strokeColor3=#c4c4c4;mainText=,;recursiveResize=0;" parent="1" vertex="1">
          <mxGeometry x="40" y="120" width="767.5" height="940" as="geometry" />
        </mxCell>
        <mxCell id="h8tkEOQfb4YPFhZdcTbf-2" value="DineScout" style="strokeWidth=1;shadow=0;dashed=0;align=center;html=1;shape=mxgraph.mockup.containers.anchor;fontSize=17;fontColor=#666666;align=left;whiteSpace=wrap;" parent="h8tkEOQfb4YPFhZdcTbf-1" vertex="1">
          <mxGeometry x="60" y="12" width="110" height="26" as="geometry" />
        </mxCell>
        <mxCell id="h8tkEOQfb4YPFhZdcTbf-3" value="https://www.dinescout.com/user_account" style="strokeWidth=1;shadow=0;dashed=0;align=center;html=1;shape=mxgraph.mockup.containers.anchor;rSize=0;fontSize=17;fontColor=#666666;align=left;" parent="h8tkEOQfb4YPFhZdcTbf-1" vertex="1">
          <mxGeometry x="130" y="60" width="250" height="26" as="geometry" />
        </mxCell>
        <mxCell id="h8tkEOQfb4YPFhZdcTbf-4" value="" style="strokeWidth=1;shadow=0;dashed=0;align=center;html=1;shape=mxgraph.mockup.forms.rrect;rSize=0;strokeColor=#999999;fillColor=#ffffff;" parent="h8tkEOQfb4YPFhZdcTbf-1" vertex="1">
          <mxGeometry x="180" y="110" width="420" height="830" as="geometry" />
        </mxCell>
        <mxCell id="IJIW-9BLw8aHHQDZSZwI-2" value="" style="rounded=0;whiteSpace=wrap;html=1;" vertex="1" parent="h8tkEOQfb4YPFhZdcTbf-4">
          <mxGeometry x="50" y="200" width="320" height="250" as="geometry" />
        </mxCell>
        <mxCell id="h8tkEOQfb4YPFhZdcTbf-8" value="" style="ellipse;whiteSpace=wrap;html=1;aspect=fixed;" parent="h8tkEOQfb4YPFhZdcTbf-4" vertex="1">
          <mxGeometry x="163.98000000000002" y="13.303030303030305" width="80" height="80" as="geometry" />
        </mxCell>
        <mxCell id="h8tkEOQfb4YPFhZdcTbf-9" value="Logo" style="text;strokeColor=none;fillColor=none;html=1;fontSize=24;fontStyle=1;verticalAlign=middle;align=center;" parent="h8tkEOQfb4YPFhZdcTbf-4" vertex="1">
          <mxGeometry x="100" y="30.61" width="210" height="45.39" as="geometry" />
        </mxCell>
        <mxCell id="h8tkEOQfb4YPFhZdcTbf-17" value="" style="strokeWidth=1;shadow=0;dashed=0;align=center;html=1;shape=mxgraph.mockup.forms.anchor;fontSize=12;fontColor=#666666;align=left;resizeWidth=1;spacingLeft=0;" parent="h8tkEOQfb4YPFhZdcTbf-4" vertex="1">
          <mxGeometry x="164.5" y="520" width="115" height="20" as="geometry" />
        </mxCell>
        <mxCell id="h8tkEOQfb4YPFhZdcTbf-33" value="" style="strokeWidth=1;shadow=0;dashed=0;align=center;html=1;shape=mxgraph.mockup.forms.anchor;fontSize=12;fontColor=#666666;align=left;resizeWidth=1;spacingLeft=0;" parent="h8tkEOQfb4YPFhZdcTbf-4" vertex="1">
          <mxGeometry x="159" y="411" width="210" height="130" as="geometry" />
        </mxCell>
        <mxCell id="IJIW-9BLw8aHHQDZSZwI-30" value="" style="rounded=0;whiteSpace=wrap;html=1;" vertex="1" parent="h8tkEOQfb4YPFhZdcTbf-4">
          <mxGeometry x="50" y="477" width="320" height="73" as="geometry" />
        </mxCell>
        <mxCell id="IJIW-9BLw8aHHQDZSZwI-31" value="&lt;div&gt;&lt;span style=&quot;background-color: initial;&quot;&gt;Reviews Written&lt;/span&gt;&lt;br&gt;&lt;/div&gt;&lt;div&gt;&lt;br&gt;&lt;/div&gt;&lt;div&gt;[Count]&lt;/div&gt;" style="strokeWidth=1;shadow=0;dashed=0;align=center;html=1;shape=mxgraph.mockup.forms.anchor;fontSize=12;fontColor=#666666;align=left;resizeWidth=1;spacingLeft=0;" vertex="1" parent="h8tkEOQfb4YPFhZdcTbf-4">
          <mxGeometry x="69.5" y="451" width="210" height="130" as="geometry" />
        </mxCell>
        <mxCell id="fcFgzC5A9_2XvSZsa60q-6" value="View List" style="strokeWidth=1;shadow=0;dashed=0;align=center;html=1;shape=mxgraph.mockup.forms.rrect;rSize=5;strokeColor=none;fontColor=#ffffff;fillColor=#66bbff;fontSize=16;fontStyle=1;" parent="h8tkEOQfb4YPFhZdcTbf-4" vertex="1">
          <mxGeometry x="270" y="488" width="90" height="30" as="geometry" />
        </mxCell>
        <mxCell id="IJIW-9BLw8aHHQDZSZwI-32" value="" style="rounded=0;whiteSpace=wrap;html=1;" vertex="1" parent="h8tkEOQfb4YPFhZdcTbf-4">
          <mxGeometry x="50" y="577" width="320" height="73" as="geometry" />
        </mxCell>
        <mxCell id="IJIW-9BLw8aHHQDZSZwI-33" value="&lt;div&gt;Restaurants Followed&lt;/div&gt;&lt;div&gt;&lt;br&gt;&lt;/div&gt;&lt;div&gt;[Count]&lt;/div&gt;" style="strokeWidth=1;shadow=0;dashed=0;align=center;html=1;shape=mxgraph.mockup.forms.anchor;fontSize=12;fontColor=#666666;align=left;resizeWidth=1;spacingLeft=0;" vertex="1" parent="h8tkEOQfb4YPFhZdcTbf-4">
          <mxGeometry x="69.5" y="550" width="210" height="130" as="geometry" />
        </mxCell>
        <mxCell id="IJIW-9BLw8aHHQDZSZwI-34" value="View List" style="strokeWidth=1;shadow=0;dashed=0;align=center;html=1;shape=mxgraph.mockup.forms.rrect;rSize=5;strokeColor=none;fontColor=#ffffff;fillColor=#66bbff;fontSize=16;fontStyle=1;" vertex="1" parent="h8tkEOQfb4YPFhZdcTbf-4">
          <mxGeometry x="270" y="588" width="90" height="30" as="geometry" />
        </mxCell>
        <mxCell id="IJIW-9BLw8aHHQDZSZwI-35" value="" style="rounded=0;whiteSpace=wrap;html=1;" vertex="1" parent="h8tkEOQfb4YPFhZdcTbf-4">
          <mxGeometry x="73" y="350" width="270" height="20" as="geometry" />
        </mxCell>
        <mxCell id="IJIW-9BLw8aHHQDZSZwI-36" value="" style="rounded=0;whiteSpace=wrap;html=1;" vertex="1" parent="h8tkEOQfb4YPFhZdcTbf-4">
          <mxGeometry x="73" y="407" width="270" height="20" as="geometry" />
        </mxCell>
        <mxCell id="h8tkEOQfb4YPFhZdcTbf-22" value="Standard User [User Account Page]" style="text;strokeColor=none;fillColor=none;html=1;fontSize=24;fontStyle=1;verticalAlign=middle;align=center;" parent="1" vertex="1">
          <mxGeometry x="375" y="40" width="100" height="60" as="geometry" />
        </mxCell>
        <mxCell id="h8tkEOQfb4YPFhZdcTbf-24" value="" style="rounded=0;whiteSpace=wrap;html=1;" parent="1" vertex="1">
          <mxGeometry x="293" y="464" width="270" height="20" as="geometry" />
        </mxCell>
        <mxCell id="h8tkEOQfb4YPFhZdcTbf-30" value="User-Update" style="strokeWidth=1;shadow=0;dashed=0;align=center;html=1;shape=mxgraph.mockup.forms.rrect;rSize=5;strokeColor=none;fontColor=#ffffff;fillColor=#66bbff;fontSize=16;fontStyle=1;" parent="1" vertex="1">
          <mxGeometry x="460.18" y="380.3" width="126.82" height="30" as="geometry" />
        </mxCell>
        <mxCell id="IJIW-9BLw8aHHQDZSZwI-1" value="&lt;span style=&quot;font-size: 16px;&quot;&gt;User Account&lt;/span&gt;" style="strokeWidth=1;shadow=0;dashed=0;align=center;html=1;shape=mxgraph.mockup.forms.anchor;fontSize=12;fontColor=#666666;align=left;resizeWidth=1;spacingLeft=0;" vertex="1" parent="1">
          <mxGeometry x="375" y="296" width="210" height="130" as="geometry" />
        </mxCell>
        <mxCell id="IJIW-9BLw8aHHQDZSZwI-5" value="" style="rounded=0;whiteSpace=wrap;html=1;" vertex="1" parent="1">
          <mxGeometry x="293" y="522" width="270" height="20" as="geometry" />
        </mxCell>
        <mxCell id="h8tkEOQfb4YPFhZdcTbf-28" value="User Name&lt;div&gt;&lt;br&gt;&lt;/div&gt;&lt;div&gt;Username here&lt;br&gt;&lt;div&gt;&lt;br&gt;&lt;/div&gt;&lt;div&gt;User location&lt;/div&gt;&lt;div&gt;&lt;br&gt;&lt;/div&gt;&lt;div&gt;Location here&lt;/div&gt;&lt;div&gt;&lt;br&gt;&lt;/div&gt;&lt;div&gt;Email (login username)&lt;/div&gt;&lt;div&gt;&lt;br&gt;&lt;/div&gt;&lt;div&gt;Email here&lt;/div&gt;&lt;div&gt;&lt;br&gt;&lt;/div&gt;&lt;div&gt;Password&lt;/div&gt;&lt;/div&gt;&lt;div&gt;&lt;br&gt;&lt;/div&gt;&lt;div&gt;New password here&lt;/div&gt;" style="strokeWidth=1;shadow=0;dashed=0;align=center;html=1;shape=mxgraph.mockup.forms.anchor;fontSize=12;fontColor=#666666;align=left;resizeWidth=1;spacingLeft=0;" parent="1" vertex="1">
          <mxGeometry x="293" y="482" width="210" height="130" as="geometry" />
        </mxCell>
      </root>
    </mxGraphModel>
  </diagram>
</mxfile>
